<?xml version="1.0" encoding="UTF-8"?>
<svg id="Layer_1" data-name="Layer 1" xmlns="http://www.w3.org/2000/svg" viewBox="0 0 186.19 78.91">
  <defs>
    <style>
      .cls-1 {
        fill: #1d385c;
      }
    </style>
  </defs>
  <path class="cls-1" d="M165.81,42.73V24.43c0-1.25-1.02-2.27-2.27-2.27h-2.84c-1.25,0-2.27,1.02-2.27,2.27v14.12l-18.42-10.44-80.23-.15,74-3.18-3.39-1.85v-6.68c0-.81-.66-1.47-1.47-1.47h-1.5c-.81,0-1.47,.66-1.47,1.47v4.26l-9.53-5.2c-.64-.35-1.35-.53-2.08-.53h-41.77c-.43,0-.85,.1-1.23,.28l-4.73,2.29,48.98,2.58H61.92l-2.06,1.07v-4.76c0-.81-.66-1.47-1.47-1.47h-1.5c-.81,0-1.47,.66-1.47,1.47v7.07l-18.51,9.65,105.24,3.94H29.33l-2.89,1.48v-13.95c0-1.25-1.02-2.27-2.27-2.27h-2.84c-1.25,0-2.27,1.02-2.27,2.27v17.72l-7.53,3.85H150.51L11.53,48.45v3.39c0,1.02,.83,1.85,1.85,1.85h15.95v12.44h10.49v-12.44h100.21v12.44h10.49v-12.44h18.8c1.4,0,2.54-1.14,2.54-2.54v-4.99l-6.04-3.42Z"/>
</svg>