<?xml version="1.0" encoding="UTF-8"?>
<svg id="Layer_1" data-name="Layer 1" xmlns="http://www.w3.org/2000/svg" viewBox="0 0 200.72 126.91">
  <defs>
    <style>
      .cls-1 {
        fill: #1d385c;
      }
    </style>
  </defs>
  <path class="cls-1" d="M175.74,51.04v-18.3c0-1.25-1.02-2.27-2.27-2.27h-2.84c-1.25,0-2.27,1.02-2.27,2.27v14.12l-18.42-10.44-80.23-.15,74-3.18-3.39-1.85v-6.68c0-.81-.66-1.47-1.47-1.47h-1.5c-.81,0-1.47,.66-1.47,1.47v4.26l-9.53-5.2c-.64-.35-1.35-.53-2.08-.53h-41.77c-.43,0-.85,.1-1.23,.28l-4.73,2.29,48.98,2.58h-53.68l-2.06,1.07v-4.76c0-.81-.66-1.47-1.47-1.47h-1.5c-.81,0-1.47,.66-1.47,1.47v7.07l-18.51,9.65,105.24,3.94H39.26l-2.89,1.48v-13.95c0-1.25-1.02-2.27-2.27-2.27h-2.84c-1.25,0-2.27,1.02-2.27,2.27v17.72l-7.53,3.85H160.44l-138.98,2.44v3.39c0,1.02,.83,1.85,1.85,1.85h15.95v12.44h10.49v-12.44h100.21v12.44h10.49v-12.44h18.8c1.4,0,2.54-1.14,2.54-2.54v-4.99l-6.04-3.42Z"/>
  <path class="cls-1" d="M29.18,79.7c-.37-.23-.09-.8,.32-.65,5.48,2.01,18.6,5.72,37.86,4.33,24.7-1.78,53.51-9.71,80.14-4.82,.44,.08,.36,.73-.08,.72-23.53-.42-37.89,4.21-58.34,6.72s-45.49,2.91-59.89-6.3Z"/>
  <path class="cls-1" d="M57.58,95.67s9.56,4.77,26.34,3.57,36.48-6.81,54.4-2.57c-16.82-.7-26.4,2.55-40.37,4.26-13.97,1.72-31.45,1.91-40.37-5.26Z"/>
  <path class="cls-1" d="M72.21,109.85s6.1,3.04,16.79,2.27c10.7-.77,23.26-4.34,34.69-1.64-10.73-.44-16.83,1.62-25.74,2.72-8.91,1.09-20.05,1.22-25.74-3.35Z"/>
</svg>