<?xml version="1.0" encoding="UTF-8"?>
<svg id="Layer_1" data-name="Layer 1" xmlns="http://www.w3.org/2000/svg" viewBox="0 0 261.68 180.41">
  <defs>
    <style>
      .cls-1 {
        fill: #1d385c;
      }
    </style>
  </defs>
  <path class="cls-1" d="M205.16,105.46v-18.3c0-1.25-1.02-2.27-2.27-2.27h-2.84c-1.25,0-2.27,1.02-2.27,2.27v14.12l-18.42-10.44-80.23-.15,74-3.18-3.39-1.85v-6.68c0-.81-.66-1.47-1.47-1.47h-1.5c-.81,0-1.47,.66-1.47,1.47v4.26l-9.53-5.2c-.64-.35-1.35-.53-2.08-.53h-41.77c-.43,0-.85,.1-1.23,.28l-4.73,2.29,48.98,2.58h-53.68l-2.06,1.07v-4.76c0-.81-.66-1.47-1.47-1.47h-1.5c-.81,0-1.47,.66-1.47,1.47v7.07l-18.51,9.65,105.24,3.94H68.67l-2.89,1.48v-13.95c0-1.25-1.02-2.27-2.27-2.27h-2.84c-1.25,0-2.27,1.02-2.27,2.27v17.72l-7.53,3.85H189.85l-138.98,2.44v3.39c0,1.02,.83,1.85,1.85,1.85h15.95v12.44h10.49v-12.44h100.21v12.44h10.49v-12.44h18.8c1.4,0,2.54-1.14,2.54-2.54v-4.99l-6.04-3.42Z"/>
  <path class="cls-1" d="M58.59,134.12c-.37-.23-.09-.8,.32-.65,5.48,2.01,18.6,5.72,37.86,4.33,24.7-1.78,53.51-9.71,80.14-4.82,.44,.08,.36,.73-.08,.72-23.53-.42-37.89,4.21-58.34,6.72s-45.49,2.91-59.89-6.3Z"/>
  <path class="cls-1" d="M86.99,150.09s9.56,4.77,26.34,3.57c16.77-1.21,36.48-6.81,54.4-2.57-16.82-.7-26.4,2.55-40.37,4.26-13.97,1.72-31.45,1.91-40.37-5.26Z"/>
  <path class="cls-1" d="M101.62,164.27s6.1,3.04,16.79,2.27,23.26-4.34,34.69-1.64c-10.73-.44-16.83,1.62-25.74,2.72s-20.05,1.22-25.74-3.35Z"/>
  <g>
    <path class="cls-1" d="M82.04,33.2c0,2.22-.35,4.15-1.04,5.79-.69,1.64-1.67,3.01-2.94,4.11-1.27,1.1-2.8,1.91-4.59,2.44-1.79,.53-3.77,.8-5.94,.8-1.04,0-2.21-.04-3.52-.13-1.31-.09-2.55-.26-3.74-.54V20.77c1.18-.27,2.44-.44,3.77-.52,1.33-.07,2.52-.11,3.55-.11,2.15,0,4.11,.25,5.88,.76,1.78,.51,3.3,1.29,4.57,2.37,1.27,1.07,2.25,2.43,2.94,4.07,.69,1.64,1.04,3.6,1.04,5.86Zm-17.09,8.99c.27,.02,.63,.04,1.07,.06,.44,.01,1.05,.02,1.81,.02,3.13,0,5.47-.8,7.01-2.39,1.54-1.59,2.31-3.82,2.31-6.68s-.75-5.14-2.26-6.7c-1.5-1.55-3.84-2.33-6.99-2.33-1.38,0-2.37,.04-2.96,.11v17.91Z"/>
    <path class="cls-1" d="M110.97,33.2c0,2.2-.33,4.13-.98,5.81-.65,1.68-1.54,3.08-2.66,4.2s-2.44,1.97-3.94,2.53c-1.5,.57-3.11,.85-4.81,.85s-3.31-.28-4.83-.85c-1.52-.57-2.84-1.41-3.96-2.53-1.12-1.12-2.02-2.52-2.68-4.2-.67-1.68-1-3.61-1-5.81s.33-4.13,1-5.79,1.57-3.06,2.72-4.2c1.15-1.13,2.47-1.99,3.98-2.55,1.5-.57,3.1-.85,4.77-.85s3.27,.28,4.77,.85c1.5,.57,2.82,1.42,3.94,2.55,1.12,1.13,2.02,2.53,2.68,4.2s1,3.6,1,5.79Zm-20.02,0c0,1.41,.17,2.68,.52,3.83,.35,1.15,.84,2.12,1.5,2.92,.65,.8,1.45,1.42,2.39,1.87,.94,.44,2,.67,3.18,.67s2.21-.22,3.15-.67c.94-.44,1.73-1.07,2.39-1.87,.65-.8,1.15-1.78,1.5-2.92,.35-1.15,.52-2.42,.52-3.83s-.17-2.68-.52-3.83c-.35-1.15-.85-2.12-1.5-2.92-.65-.8-1.45-1.42-2.39-1.87s-1.99-.67-3.15-.67-2.24,.22-3.18,.67c-.94,.44-1.73,1.07-2.39,1.89-.65,.81-1.15,1.79-1.5,2.92-.35,1.13-.52,2.4-.52,3.81Z"/>
    <path class="cls-1" d="M127.48,46.6c-1.92,0-3.65-.3-5.18-.89-1.53-.59-2.82-1.46-3.89-2.61s-1.87-2.55-2.44-4.2c-.57-1.65-.85-3.55-.85-5.7s.33-4.05,.98-5.7c.65-1.65,1.55-3.05,2.68-4.2,1.13-1.15,2.47-2.02,4-2.61,1.53-.59,3.17-.89,4.92-.89,1.06,0,2.02,.08,2.89,.24,.86,.16,1.62,.34,2.26,.54,.64,.2,1.17,.41,1.59,.63,.42,.22,.72,.38,.89,.48l-1.37,3.81c-.59-.37-1.44-.72-2.53-1.05-1.1-.33-2.29-.5-3.57-.5-1.11,0-2.15,.19-3.11,.57-.96,.38-1.79,.96-2.5,1.72-.7,.76-1.25,1.73-1.65,2.89-.4,1.16-.59,2.5-.59,4.03,0,1.36,.15,2.6,.46,3.74,.31,1.14,.78,2.12,1.42,2.94,.64,.83,1.46,1.47,2.44,1.92,.99,.46,2.17,.68,3.55,.68,1.65,0,3-.17,4.03-.5,1.04-.33,1.84-.65,2.4-.94l1.26,3.81c-.3,.2-.7,.4-1.2,.59-.51,.2-1.1,.39-1.79,.57-.69,.19-1.47,.33-2.33,.44-.86,.11-1.79,.17-2.78,.17Z"/>
    <path class="cls-1" d="M155,46.04c-.64-.99-1.38-2.02-2.22-3.11-.84-1.09-1.72-2.13-2.65-3.15-.92-1.01-1.88-1.97-2.87-2.89-.99-.91-1.96-1.7-2.92-2.37v11.51h-4.66V20.4h4.66v10.58c.81-.81,1.67-1.68,2.55-2.61,.89-.92,1.77-1.86,2.65-2.81,.88-.95,1.71-1.87,2.5-2.76,.79-.89,1.5-1.69,2.15-2.41h5.59c-.81,.94-1.68,1.91-2.59,2.92-.91,1.01-1.85,2.03-2.81,3.05-.96,1.02-1.93,2.04-2.9,3.05-.97,1.01-1.93,1.97-2.87,2.89,1.04,.79,2.09,1.71,3.16,2.76,1.07,1.05,2.13,2.17,3.16,3.37,1.04,1.2,2.03,2.44,2.98,3.74,.95,1.3,1.82,2.58,2.61,3.87h-5.51Z"/>
    <path class="cls-1" d="M163.77,46.04V20.4h16.47v3.96h-11.8v6.33h10.51v3.88h-10.51v7.51h12.69v3.96h-17.35Z"/>
    <path class="cls-1" d="M194.08,31.76c1.11-1.85,2.2-3.72,3.26-5.62,1.06-1.9,2.02-3.81,2.89-5.74h5.18c-1.38,2.61-2.82,5.21-4.31,7.79-1.49,2.58-3.09,5.17-4.79,7.79v10.06h-4.66v-9.99c-1.7-2.64-3.31-5.25-4.81-7.84-1.5-2.59-2.95-5.19-4.33-7.81h5.48c.86,1.92,1.81,3.84,2.85,5.74s2.12,3.77,3.26,5.62Z"/>
    <path class="cls-1" d="M74.18,58.01c0-2.48,1.63-4.98,4.04-4.98,.89,0,1.58,.46,1.93,1.13l-.55,.52c-.31-.53-.79-.83-1.44-.83-1.83,0-3.02,2.18-3.02,4.08,0,1.43,.6,2.45,1.97,2.45,.67,0,1.2-.26,1.7-.68l.41,.59c-.59,.54-1.28,.91-2.27,.91-1.77,0-2.77-1.3-2.77-3.18Z"/>
    <path class="cls-1" d="M80.56,58.85c0-2.21,1.55-3.78,3.14-3.78,1.26,0,2.09,.89,2.09,2.34,0,2.21-1.56,3.78-3.15,3.78-1.26,0-2.07-.89-2.07-2.34Zm4.29-1.38c0-1.06-.44-1.63-1.25-1.63-1.07,0-2.11,1.32-2.11,2.95,0,1.06,.43,1.63,1.24,1.63,1.08,0,2.12-1.33,2.12-2.95Z"/>
    <path class="cls-1" d="M87.8,55.21h.77l-.1,.88h.05c.62-.58,1.31-1.02,2.03-1.02,.98,0,1.39,.55,1.39,1.45,0,.28-.04,.48-.1,.8l-.74,3.72h-.94l.73-3.6c.06-.31,.1-.48,.1-.68,0-.59-.26-.89-.86-.89-.46,0-1.02,.32-1.75,1.04l-.82,4.13h-.92l1.16-5.83Z"/>
    <path class="cls-1" d="M94.11,55.21h.77l-.1,.88h.05c.62-.58,1.31-1.02,2.03-1.02,.98,0,1.39,.55,1.39,1.45,0,.28-.04,.48-.1,.8l-.74,3.72h-.94l.73-3.6c.06-.31,.1-.48,.1-.68,0-.59-.26-.89-.86-.89-.46,0-1.02,.32-1.75,1.04l-.82,4.13h-.92l1.16-5.83Z"/>
    <path class="cls-1" d="M99.33,58.75c0-2.19,1.6-3.68,3.12-3.68,1.31,0,1.81,.91,1.81,2.11,0,.47-.13,.95-.22,1.16h-3.78c-.2,1.48,.58,2.1,1.57,2.1,.5,0,.96-.19,1.32-.46l.34,.56c-.46,.36-1.08,.64-1.82,.64-1.42,0-2.34-.88-2.34-2.43Zm4.07-1.12c.05-.17,.07-.34,.07-.54,0-.66-.29-1.28-1.13-1.28s-1.69,.72-1.97,1.82h3.02Z"/>
    <path class="cls-1" d="M105.09,58.85c0-2.17,1.56-3.78,3.25-3.78,.71,0,1.21,.31,1.51,.71l-.53,.53c-.28-.32-.56-.47-1.04-.47-1.16,0-2.24,1.35-2.24,2.95,0,1.06,.46,1.63,1.38,1.63,.48,0,.97-.24,1.3-.5l.4,.58c-.41,.34-1.04,.7-1.87,.7-1.27,0-2.15-.85-2.15-2.34Z"/>
    <path class="cls-1" d="M110.7,59.87c0-.22,.02-.41,.06-.62l.68-3.29h-.85l.13-.68,.91-.06,.48-1.86h.78l-.36,1.86h1.48l-.16,.74h-1.49l-.68,3.32c-.02,.14-.04,.29-.04,.43,0,.48,.19,.72,.71,.72,.23,0,.46-.06,.62-.16l.22,.62c-.26,.14-.65,.29-1.12,.29-1.01,0-1.38-.58-1.38-1.32Z"/>
    <path class="cls-1" d="M115.3,55.21h.92l-1.16,5.83h-.92l1.16-5.83Zm.17-1.75c0-.4,.32-.7,.7-.7,.31,0,.59,.2,.59,.55,0,.4-.32,.68-.7,.68-.31,0-.59-.19-.59-.54Z"/>
    <path class="cls-1" d="M118.15,55.21h.77l-.1,.88h.05c.62-.58,1.31-1.02,2.03-1.02,.98,0,1.39,.55,1.39,1.45,0,.28-.04,.48-.1,.8l-.74,3.72h-.94l.73-3.6c.06-.31,.1-.48,.1-.68,0-.59-.26-.89-.86-.89-.46,0-1.02,.32-1.75,1.04l-.82,4.13h-.92l1.16-5.83Z"/>
    <path class="cls-1" d="M122.95,62.86l.42-.58c.43,.37,1.02,.62,1.64,.62,.98,0,1.56-.65,1.8-1.67l.3-1.25c-.61,.61-1.28,.98-2.03,.98-.98,0-1.69-.7-1.69-2.05,0-2.13,1.51-3.86,3.08-3.86,.61,0,1.13,.35,1.4,.88h.04l.23-.73h.77l-1.22,6.1c-.32,1.52-1.26,2.36-2.71,2.36-.74,0-1.48-.26-2.03-.82Zm4.23-3.68l.5-2.48c-.35-.61-.73-.85-1.18-.85-1.12,0-2.16,1.43-2.16,2.94,0,.95,.4,1.42,1.03,1.42,.55,0,1.25-.35,1.8-1.02Z"/>
    <path class="cls-1" d="M133.77,52.5h.92l-.56,2.81-.2,.74h.05c.66-.56,1.3-.98,2-.98,.98,0,1.39,.55,1.39,1.45,0,.28-.02,.48-.1,.8l-.74,3.72h-.94l.73-3.6c.06-.31,.1-.48,.1-.68,0-.59-.26-.89-.86-.89-.46,0-1.02,.32-1.75,1.04l-.82,4.13h-.92l1.7-8.54Z"/>
    <path class="cls-1" d="M138.44,59.08c0-2.24,1.54-4.01,3.15-4.01,.62,0,1.13,.35,1.4,.88h.05l.23-.73h.76l-1.18,5.83h-.76l.08-.86h-.04c-.58,.6-1.3,1.01-2.03,1.01-1.02,0-1.68-.74-1.68-2.11Zm3.84,.23l.54-2.6c-.34-.61-.74-.85-1.19-.85-1.16,0-2.23,1.48-2.23,3.08,0,1.01,.41,1.48,1.06,1.48,.61,0,1.26-.35,1.82-1.1Z"/>
    <path class="cls-1" d="M145.83,60.31h-.05l-.23,.73h-.77l1.7-8.54h.92l-.46,2.28-.28,1.14h.02c.59-.47,1.26-.85,1.98-.85,1.03,0,1.68,.74,1.68,2.11,0,2.24-1.54,4.01-3.14,4.01-.62,0-1.12-.35-1.39-.88Zm3.59-3c0-.98-.42-1.46-1.07-1.46-.54,0-1.25,.35-1.79,.94l-.56,2.76c.34,.61,.73,.86,1.19,.86,1.16,0,2.23-1.48,2.23-3.09Z"/>
    <path class="cls-1" d="M151.32,58.85c0-2.21,1.55-3.78,3.14-3.78,1.26,0,2.09,.89,2.09,2.34,0,2.21-1.56,3.78-3.15,3.78-1.26,0-2.07-.89-2.07-2.34Zm4.29-1.38c0-1.06-.44-1.63-1.25-1.63-1.07,0-2.11,1.32-2.11,2.95,0,1.06,.43,1.63,1.24,1.63,1.08,0,2.12-1.33,2.12-2.95Z"/>
    <path class="cls-1" d="M158.55,55.21h.77l-.14,1.12h.05c.47-.71,1.08-1.26,1.8-1.26,.22,0,.41,.04,.56,.11l-.32,.8c-.13-.06-.3-.07-.5-.07-.59,0-1.22,.5-1.73,1.46l-.72,3.67h-.92l1.16-5.83Z"/>
    <path class="cls-1" d="M164.14,59.73c0-.28,.02-.49,.1-.8l.74-3.72h.92l-.72,3.6c-.06,.3-.1,.47-.1,.67,0,.6,.26,.9,.86,.9,.44,0,1.01-.32,1.72-1.04l.83-4.13h.92l-1.16,5.83h-.76l.08-.89h-.05c-.61,.56-1.31,1.03-2,1.03-.98,0-1.39-.56-1.39-1.45Z"/>
    <path class="cls-1" d="M169.76,60.09l.5-.43c.37,.5,.92,.8,1.55,.8,.67,0,1.24-.41,1.24-.96,0-.43-.26-.65-1.16-1.15-.73-.41-1.23-.89-1.23-1.57,0-1.01,.88-1.71,1.94-1.71,.72,0,1.31,.3,1.75,.8l-.49,.49c-.32-.35-.77-.58-1.28-.58-.6,0-1.04,.42-1.04,.89s.44,.73,1.04,1.06c.97,.53,1.35,.96,1.35,1.65,0,1.09-.94,1.8-2.18,1.8-.78,0-1.6-.42-1.98-1.09Z"/>
    <path class="cls-1" d="M175.05,58.75c0-2.19,1.6-3.68,3.12-3.68,1.31,0,1.81,.91,1.81,2.11,0,.47-.13,.95-.22,1.16h-3.78c-.2,1.48,.58,2.1,1.57,2.1,.5,0,.96-.19,1.32-.46l.34,.56c-.46,.36-1.08,.64-1.82,.64-1.42,0-2.34-.88-2.34-2.43Zm4.07-1.12c.05-.17,.07-.34,.07-.54,0-.66-.29-1.28-1.13-1.28s-1.69,.72-1.97,1.82h3.02Z"/>
    <path class="cls-1" d="M181.9,55.21h.77l-.14,1.12h.05c.47-.71,1.08-1.26,1.8-1.26,.22,0,.41,.04,.56,.11l-.32,.8c-.13-.06-.3-.07-.5-.07-.59,0-1.22,.5-1.73,1.46l-.72,3.67h-.92l1.16-5.83Z"/>
    <path class="cls-1" d="M184.38,60.09l.5-.43c.37,.5,.92,.8,1.55,.8,.67,0,1.24-.41,1.24-.96,0-.43-.26-.65-1.16-1.15-.73-.41-1.24-.89-1.24-1.57,0-1.01,.88-1.71,1.94-1.71,.72,0,1.31,.3,1.75,.8l-.49,.49c-.32-.35-.77-.58-1.28-.58-.6,0-1.04,.42-1.04,.89s.44,.73,1.04,1.06c.97,.53,1.36,.96,1.36,1.65,0,1.09-.94,1.8-2.18,1.8-.78,0-1.6-.42-1.98-1.09Z"/>
  </g>
</svg>