<?xml version="1.0" encoding="UTF-8"?>
<svg id="Layer_1" data-name="Layer 1" xmlns="http://www.w3.org/2000/svg" viewBox="0 0 114.51 104.73">
  <defs>
    <style>
      .cls-1 {
        fill: #12395f;
      }
    </style>
  </defs>
  <path class="cls-1" d="M91.94,51.83c-6.63,0-12.01-5.38-12.01-12.01v-5.3h-5.3c-6.63,0-12.01-5.38-12.01-12.01,0-4.73,2.74-8.81,6.72-10.77-5.97-2.15-12.53-3.34-19.42-3.34C22.35,8.41,0,27.47,0,50.99c0,11.77,5.6,22.42,14.65,30.13,.71,4.35,1.34,12.68-2.22,20.55-.58,1.29,.24,2.82,1.65,2.97,10.48,1.05,22.28-6.7,27.58-11.65,2.69,.38,5.45,.59,8.26,.59,27.57,0,49.92-19.06,49.92-42.58,0-.7-.02-1.39-.06-2.09-2.1,1.82-4.84,2.93-7.84,2.93Z"/>
  <path class="cls-1" d="M109.25,17.52h-12.31V5.21c0-2.76-2.24-5-5-5s-5,2.24-5,5v12.31h-12.31c-2.76,0-5,2.24-5,5s2.24,5,5,5h12.31v12.31c0,2.76,2.24,5,5,5s5-2.24,5-5v-12.31h12.31c2.76,0,5-2.24,5-5s-2.24-5-5-5Z"/>
</svg>