<?xml version="1.0" encoding="UTF-8"?>
<svg id="Layer_1" data-name="Layer 1" xmlns="http://www.w3.org/2000/svg" viewBox="0 0 50.22 49.88">
  <defs>
    <style>
      .cls-1 {
        fill: #1d385c;
      }
    </style>
  </defs>
  <path class="cls-1" d="M24.73,5.87C13.76,5.87,4.87,14.76,4.87,25.73s8.89,19.86,19.86,19.86,19.86-8.89,19.86-19.86S35.7,5.87,24.73,5.87Zm-6.75,30.57c-.17,.17-.39,.27-.63,.27l-3.6,.12c-.35,.01-.63-.27-.62-.62l.12-3.6c0-.24,.11-.46,.27-.63l14.61-14.59,4.46,4.46-14.61,14.59Zm17.9-17.9l-1.77,1.77-4.46-4.46,1.77-1.77c.59-.59,1.54-.59,2.12,0l2.33,2.33c.59,.59,.59,1.54,0,2.12Z"/>
</svg>