<?xml version="1.0" encoding="UTF-8"?>
<svg id="Layer_1" data-name="Layer 1" xmlns="http://www.w3.org/2000/svg" viewBox="0 0 94.84 93.85">
  <defs>
    <style>
      .cls-1 {
        fill: #8492b5;
      }
    </style>
  </defs>
  <path class="cls-1" d="M88.88,78.75l-19.13-19.13c3.8-5.72,6.02-12.56,6.02-19.93C75.77,19.77,59.56,3.56,39.63,3.56S3.5,19.77,3.5,39.69s16.21,36.13,36.13,36.13c7.36,0,14.21-2.22,19.93-6.02l19.13,19.13c1.41,1.41,3.25,2.11,5.09,2.11s3.69-.7,5.09-2.11c2.81-2.81,2.81-7.38,0-10.19ZM14.31,39.69c0-13.97,11.36-25.33,25.33-25.33s25.33,11.36,25.33,25.33-11.36,25.33-25.33,25.33-25.33-11.36-25.33-25.33Z"/>
</svg>