<?xml version="1.0" encoding="UTF-8"?>
<svg id="Layer_1" data-name="Layer 1" xmlns="http://www.w3.org/2000/svg" viewBox="0 0 97.83 96.96">
  <defs>
    <style>
      .cls-1 {
        fill: #8492b5;
      }
    </style>
  </defs>
  <g>
    <path class="cls-1" d="M48.91,60.42l39.55-25.69c-1.92-.84-4.03-1.31-6.25-1.31H15.62c-2.23,0-4.34,.47-6.25,1.31l39.55,25.69Z"/>
    <path class="cls-1" d="M51.09,68.55c-.66,.43-1.42,.65-2.18,.65s-1.52-.21-2.18-.65L2.86,40.06c-1.8,2.54-2.86,5.64-2.86,8.99v32.3c0,8.63,6.99,15.62,15.62,15.62H82.21c8.63,0,15.62-6.99,15.62-15.62V49.05c0-3.35-1.06-6.45-2.86-8.99l-43.87,28.49Z"/>
  </g>
  <path class="cls-1" d="M11.89,16.21H86.16c1.69,0,3.06,1.37,3.06,3.06v5.05H8.82v-5.05c0-1.69,1.37-3.06,3.06-3.06Z"/>
  <path class="cls-1" d="M19.63,.16h58.23c1.69,0,3.06,1.37,3.06,3.06v5.05H16.57V3.23c0-1.69,1.37-3.06,3.06-3.06Z"/>
</svg>